<svg xmlns="http://www.w3.org/2000/svg" viewBox="0 0 800 400" width="800" height="400" role="img" aria-label="Snake game on loop">
<title>Snake game on loop</title>
<rect x="0" y="0" width="800" height="400" fill="#ffffff"/>
<g id="grid">
<line x1="0" y1="0" x2="0" y2="400" stroke="#111111" stroke-width="2" opacity="0.35"/>
<line x1="40" y1="0" x2="40" y2="400" stroke="#111111" stroke-width="2" opacity="0.35"/>
<line x1="80" y1="0" x2="80" y2="400" stroke="#111111" stroke-width="2" opacity="0.35"/>
<line x1="120" y1="0" x2="120" y2="400" stroke="#111111" stroke-width="2" opacity="0.35"/>
<line x1="160" y1="0" x2="160" y2="400" stroke="#111111" stroke-width="2" opacity="0.35"/>
<line x1="200" y1="0" x2="200" y2="400" stroke="#111111" stroke-width="2" opacity="0.35"/>
<line x1="240" y1="0" x2="240" y2="400" stroke="#111111" stroke-width="2" opacity="0.35"/>
<line x1="280" y1="0" x2="280" y2="400" stroke="#111111" stroke-width="2" opacity="0.35"/>
<line x1="320" y1="0" x2="320" y2="400" stroke="#111111" stroke-width="2" opacity="0.35"/>
<line x1="360" y1="0" x2="360" y2="400" stroke="#111111" stroke-width="2" opacity="0.35"/>
<line x1="400" y1="0" x2="400" y2="400" stroke="#111111" stroke-width="2" opacity="0.35"/>
<line x1="440" y1="0" x2="440" y2="400" stroke="#111111" stroke-width="2" opacity="0.35"/>
<line x1="480" y1="0" x2="480" y2="400" stroke="#111111" stroke-width="2" opacity="0.35"/>
<line x1="520" y1="0" x2="520" y2="400" stroke="#111111" stroke-width="2" opacity="0.35"/>
<line x1="560" y1="0" x2="560" y2="400" stroke="#111111" stroke-width="2" opacity="0.35"/>
<line x1="600" y1="0" x2="600" y2="400" stroke="#111111" stroke-width="2" opacity="0.35"/>
<line x1="640" y1="0" x2="640" y2="400" stroke="#111111" stroke-width="2" opacity="0.35"/>
<line x1="680" y1="0" x2="680" y2="400" stroke="#111111" stroke-width="2" opacity="0.35"/>
<line x1="720" y1="0" x2="720" y2="400" stroke="#111111" stroke-width="2" opacity="0.35"/>
<line x1="760" y1="0" x2="760" y2="400" stroke="#111111" stroke-width="2" opacity="0.35"/>
<line x1="800" y1="0" x2="800" y2="400" stroke="#111111" stroke-width="2" opacity="0.35"/>
<line x1="0" y1="0" x2="800" y2="0" stroke="#111111" stroke-width="2" opacity="0.35"/>
<line x1="0" y1="40" x2="800" y2="40" stroke="#111111" stroke-width="2" opacity="0.35"/>
<line x1="0" y1="80" x2="800" y2="80" stroke="#111111" stroke-width="2" opacity="0.35"/>
<line x1="0" y1="120" x2="800" y2="120" stroke="#111111" stroke-width="2" opacity="0.35"/>
<line x1="0" y1="160" x2="800" y2="160" stroke="#111111" stroke-width="2" opacity="0.35"/>
<line x1="0" y1="200" x2="800" y2="200" stroke="#111111" stroke-width="2" opacity="0.35"/>
<line x1="0" y1="240" x2="800" y2="240" stroke="#111111" stroke-width="2" opacity="0.35"/>
<line x1="0" y1="280" x2="800" y2="280" stroke="#111111" stroke-width="2" opacity="0.35"/>
<line x1="0" y1="320" x2="800" y2="320" stroke="#111111" stroke-width="2" opacity="0.35"/>
<line x1="0" y1="360" x2="800" y2="360" stroke="#111111" stroke-width="2" opacity="0.35"/>
<line x1="0" y1="400" x2="800" y2="400" stroke="#111111" stroke-width="2" opacity="0.35"/>
</g>
<rect x="2" y="2" width="796" height="396" fill="none" stroke="#111111" stroke-width="4"/>
<text x="24" y="38" font-family="monospace" font-size="26" font-weight="bold" fill="#111111" opacity="0">SCORE 08<animate attributeName="opacity" values="1;1;0;0;1" keyTimes="0;0.45;0.55;0.9;1" begin="0s" dur="8s" repeatCount="indefinite"/></text>
<text x="24" y="38" font-family="monospace" font-size="26" font-weight="bold" fill="#111111" opacity="0">SCORE 09<animate attributeName="opacity" values="0;0;1;1;0" keyTimes="0;0.45;0.55;0.9;1" begin="0s" dur="8s" repeatCount="indefinite"/></text>
<text x="24" y="38" font-family="monospace" font-size="26" font-weight="bold" fill="#111111" opacity="0">SCORE 10<animate attributeName="opacity" values="0;0;0;1;0" keyTimes="0;0.55;0.8;0.9;1" begin="0s" dur="8s" repeatCount="indefinite"/></text>
<g id="apple" transform="translate(600 320)">
<g>
<animateTransform attributeName="transform" type="scale" values="1 1;1 1;0 0;0 0;1 1" keyTimes="0;0.45;0.55;0.9;1" begin="0s" dur="8s" repeatCount="indefinite"/>
<rect x="-15" y="-15" width="30" height="30" rx="4" fill="#E5383B" stroke="#7F1D1D" stroke-width="2"/>
<rect x="-9" y="-9" width="8" height="8" fill="#FFFFFF" opacity="0.85"/>
<rect x="4" y="-24" width="14" height="8" rx="4" fill="#2DC653" transform="rotate(30 11 -20)"/>
<rect x="-2" y="-24" width="4" height="10" fill="#7F4F24"/>
<rect x="8" y="2" width="4" height="4" fill="#FFFFFF" opacity="0.9"/>
</g>
</g>
<g id="snake">
<animateTransform attributeName="transform" type="translate" values="100 100;600 100;660 160;660 280;600 320;100 320;40 260;40 140;100 100" keyTimes="0;0.125;0.25;0.375;0.5;0.625;0.75;0.875;1" begin="0s" dur="8s" repeatCount="indefinite"/>
<rect x="-48" y="-18" width="36" height="36" rx="8" fill="#480CA8" stroke-width="2"><animateTransform attributeName="transform" type="translate" values="0 0;0 -8;0 0;0 8;0 0" keyTimes="0;0.25;0.5;0.75;1" begin="0s" dur="8s" repeatCount="indefinite"/></rect>
<rect x="-88" y="-18" width="36" height="36" rx="8" fill="#7209B7" stroke-width="2"><animateTransform attributeName="transform" type="translate" values="0 0;0 8;0 0;0 -8;0 0" keyTimes="0;0.25;0.5;0.75;1" begin="0s" dur="8s" repeatCount="indefinite"/></rect>
<rect x="-128" y="-18" width="36" height="36" rx="8" fill="#C2185B" stroke-width="2"><animateTransform attributeName="transform" type="translate" values="0 0;0 -8;0 0;0 8;0 0" keyTimes="0;0.25;0.5;0.75;1" begin="0s" dur="8s" repeatCount="indefinite"/></rect>
<rect x="-168" y="-18" width="36" height="36" rx="8" fill="#E5383B" stroke-width="2"><animateTransform attributeName="transform" type="translate" values="0 0;0 8;0 0;0 -8;0 0" keyTimes="0;0.25;0.5;0.75;1" begin="0s" dur="8s" repeatCount="indefinite"/></rect>
<rect x="-208" y="-18" width="36" height="36" rx="8" fill="#F72585" stroke-width="2"><animateTransform attributeName="transform" type="translate" values="0 0;0 -8;0 0;0 8;0 0" keyTimes="0;0.25;0.5;0.75;1" begin="0s" dur="8s" repeatCount="indefinite"/></rect>
<rect x="-248" y="-18" width="36" height="36" rx="8" fill="#0077B6" stroke-width="2"><animateTransform attributeName="transform" type="translate" values="0 0;0 8;0 0;0 -8;0 0" keyTimes="0;0.25;0.5;0.75;1" begin="0s" dur="8s" repeatCount="indefinite"/></rect>
<rect x="-288" y="-18" width="36" height="36" rx="8" fill="#0096C7" stroke-width="2"><animateTransform attributeName="transform" type="translate" values="0 0;0 -8;0 0;0 8;0 0" keyTimes="0;0.25;0.5;0.75;1" begin="0s" dur="8s" repeatCount="indefinite"/></rect>
<rect x="-328" y="-18" width="36" height="36" rx="8" fill="#00B4D8" stroke-width="2"><animateTransform attributeName="transform" type="translate" values="0 0;0 8;0 0;0 -8;0 0" keyTimes="0;0.25;0.5;0.75;1" begin="0s" dur="8s" repeatCount="indefinite"/></rect>
<g id="head">
<rect x="-22" y="-22" width="44" height="44" rx="8" fill="#3A0CA3" stroke-width="2"/>
<rect x="-14" y="-12" width="12" height="12" rx="2" fill="#D00000"/>
<rect x="2" y="-12" width="12" height="12" rx="2" fill="#D00000"/>
<rect x="-11" y="-9" width="6" height="6" fill="#000000"/>
<rect x="5" y="-9" width="6" height="6" fill="#000000"/>
<line x1="-16" y1="-18" x2="-2" y2="-12" stroke="#111111" stroke-width="3"/>
<line x1="16" y1="-18" x2="2" y2="-12" stroke="#111111" stroke-width="3"/>
<polygon points="-10,14 -4,14 -7,24" fill="#FFFFFF"/>
<polygon points="4,14 10,14 7,24" fill="#FFFFFF"/>
</g>
</g>
<text x="400" y="210" text-anchor="middle" font-family="monospace" font-size="52" font-weight="bold" fill="#FF0000" opacity="0">GAME OVER<animate attributeName="opacity" values="0;0;0;1;1;0;0" keyTimes="0;0.7;0.8;0.85;0.9;0.95;1" begin="0s" dur="8s" repeatCount="indefinite"/></text>
</svg>
